<?xml version="1.0" encoding="UTF-8"?>
<svg width="50" height="50" version="1.1" viewBox="0 0 50 50" xmlns="http://www.w3.org/2000/svg">
 <g class="" transform="matrix(0 .10242 -.10214 0 51.455 -2.093)" fill="#fff" stroke="#fff">
  <path d="m237.13 18.283c-51.748 0-99.183 27.58-136.07 73.395 11.946-6.97 24.526-11.903 37.51-14.76 8.952-1.97 18.062-2.96 27.25-3 27.562-0.123 55.824 8.283 82.636 24.318 70.828 42.362 132.58 137.45 153.7 275.18l-49.44 12.637 74.33 109.74 74.327-147.73-51.84 13.25c0.564-8.534 0.9-17.16 0.9-25.905 0-175.09-95.847-317.12-213.31-317.12h-2e-3zm-71.165 74.305c-7.924 0.04-15.734 0.9-23.375 2.582-30.47 6.705-58.785 26.48-81.356 61.89-23.238 50.82-36.834 112.22-36.834 178.34 0 15.983 1.35 31.378 2.883 46.73 14.387-135.1 92.702-238.62 187.36-238.62 34.713 0 67.177 13.976 95.083 38.334-21.608-29.968-45.915-52.65-70.863-67.57-24.337-14.556-49.13-21.81-72.902-21.688z" fill="#fff" stroke="#fff" stroke-width="8"/>
 </g>
</svg>
